:SAMPLES-PER-SECOND 30
:FULLY-SPECIFIED
:DEGREES
82
root  7.13382 38.4701 -2.12259 -153.42 -79.392 163.734
RightUpLeg  7.70049 -9.71476 -8.69802
RightLeg  23.3259 0.635268 -0.00824288
RightFoot  -5.06118 -0.862225 15.6758
RightToes  0.00048216 0.542163 -0.142577
Spine  22.5248 6.92027 10.1391
Spine1  -7.87331 9.94624 -10.1086
HEad  -24.2136 -5.04795 -10.6331
LeftShoulder1  5.54625 -10.7528 -32.8449
LeftArm  -11.6429 20.5527 0.0252686
LeftForeArm  19.5067 -16.3899 -3.27446
LeftHand  -0.25398 0.0180481 5.50724
RightShoulder  5.46181 10.3973 33.3489
RightArm  -17.7758 17.4701 16.7799
RightForeArm  109.262 77.3514 122.697
RightHand  -2.61909 5.69059 -27.3211
LeftUpLeg  -65.4937 6.58356 -5.01885
LeftLeg  52.9423 6.52983 9.67949
LeftFoot  -14.8931 -0.0983564 -6.03056
LeftToes  1.06248e-005 4.65856e-005 -8.185e-006
83
root  3.36099 39.5324 -2.21135 -153.641 -77.7904 165.784
RightUpLeg  12.2951 -13.8448 -13.0485
RightLeg  15.1058 3.92021 1.42218
RightFoot  14.2918 -3.45374 15.4984
RightToes  0.00048216 0.542163 -0.142577
Spine  16.4125 8.9556 9.13259
Spine1  -6.4597 11.6873 -12.7318
HEad  -18.4525 -5.5464 -8.04574
LeftShoulder1  3.77399 -7.96903 -26.6824
LeftArm  -8.51864 23.2567 3.84055
LeftForeArm  18.3074 -17.6456 -3.52387
LeftHand  -0.25398 0.0180481 5.50724
RightShoulder  5.2699 10.4051 31.9467
RightArm  -13.5177 11.0115 17.101
RightForeArm  131.596 70.8096 146.894
RightHand  -2.33649 4.70147 -26.7658
LeftUpLeg  -66.6512 9.25472 -6.91568
LeftLeg  42.5805 6.46375 6.7207
LeftFoot  -14.0241 -0.0901089 -7.35449
LeftToes  1.06248e-005 4.65856e-005 -8.185e-006
84
root  -0.485434 40.2184 -2.2775 -156.245 -77.074 168.628
RightUpLeg  18.2573 -15.2775 -17.1242
RightLeg  8.81788 4.11663 3.19141
RightFoot  25.8065 -5.19779 15.9601
RightToes  0.00048216 0.542163 -0.142577
Spine  10.7324 10.2645 8.64434
Spine1  -3.44189 12.9545 -14.0216
HEad  -13.2342 -5.59868 -5.78512
LeftShoulder1  2.00176 -3.87935 -20.558
LeftArm  -8.3542 24.8751 6.22666
LeftForeArm  18.072 -18.2937 -3.43458
LeftHand  -0.25398 0.0180481 5.50724
RightShoulder  4.72668 10.1817 28.5238
RightArm  -8.54785 5.19989 18.528
RightForeArm  139.77 63.9637 156.798
RightHand  -1.96234 3.37575 -25.8745
LeftUpLeg  -65.9538 10.9291 -7.67812
LeftLeg  35.197 5.58933 4.58275
LeftFoot  -14.5271 -0.150697 -8.53062
LeftToes  1.06248e-005 4.65856e-005 -8.185e-006
85
root  -4.41956 40.5756 -2.3463 -162.495 -76.4089 174.249
RightUpLeg  24.1027 -12.946 -18.8263
RightLeg  5.44615 2.01817 3.82816
RightFoot  25.9786 -5.26654 16.0434
RightToes  0.00048216 0.542163 -0.142577
Spine  5.52899 11.6059 8.96476
Spine1  -0.375528 14.3619 -14.3256
HEad  -7.98353 -5.76682 -3.73848
LeftShoulder1  0.717316 0.187036 -14.6444
LeftArm  -8.26375 26.6796 7.67
LeftForeArm  18.1433 -18.5498 -3.34252
LeftHand  -0.25398 0.0180481 5.50724
RightShoulder  3.9414 9.46253 24.2381
RightArm  -2.80037 -0.802295 19.5888
RightForeArm  144.844 57.5634 162.218
RightHand  -1.52638 1.86659 -24.2996
LeftUpLeg  -63.9014 12.8562 -7.31453
LeftLeg  29.9437 4.69967 3.26729
LeftFoot  -14.7491 -0.175921 -8.85225
LeftToes  1.06248e-005 4.65856e-005 -8.185e-006
86
root  -8.39176 40.577 -2.39202 -169.633 -75.4261 -179.189
RightUpLeg  28.0526 -11.7074 -19.3924
RightLeg  6.19388 1.28063 2.49068
RightFoot  21.5157 -3.96465 13.8827
RightToes  0.00048216 0.542163 -0.142577
Spine  0.410806 13.0965 10.0561
Spine1  1.9985 15.8695 -14.8655
HEad  -2.55388 -6.27584 -1.83728
LeftShoulder1  0.0480465 3.22636 -9.52574
LeftArm  -4.94718 28.9176 9.48812
LeftForeArm  18.6214 -18.5409 -3.46625
LeftHand  -0.25398 0.0180481 5.50724
RightShoulder  3.359 8.56604 21.5432
RightArm  3.5418 -7.60723 18.6984
RightForeArm  150.009 51.7766 165.767
RightHand  -1.17176 0.689306 -22.3055
LeftUpLeg  -61.4847 15.3008 -6.94295
LeftLeg  25.706 4.0281 2.45027
LeftFoot  -14.0171 -0.106936 -8.17699
LeftToes  1.06248e-005 4.65856e-005 -8.185e-006
87
root  -12.3053 40.2016 -2.3802 -174.945 -74.6068 -174.574
RightUpLeg  30.0537 -11.1241 -19.9204
RightLeg  10.3114 0.123407 0.583778
RightFoot  19.8335 -2.58759 9.79993
RightToes  0.00048216 0.542163 -0.142577
Spine  -4.07213 14.274 11.5915
Spine1  4.12156 17.0926 -16.1958
HEad  2.4181 -6.66238 -0.285086
LeftShoulder1  -0.329536 5.89293 -6.16687
LeftArm  -0.391407 30.6541 11.3068
LeftForeArm  19.4848 -18.4737 -3.69072
LeftHand  -0.25398 0.0180481 5.50724
RightShoulder  3.05953 7.78639 20.7535
RightArm  10.1874 -15.1175 16.7012
RightForeArm  154.538 47.7209 167.818
RightHand  -1.04487 0.395437 -20.9174
LeftUpLeg  -58.2446 17.4304 -7.01243
LeftLeg  21.9335 3.36623 1.84361
LeftFoot  -14.3715 -0.126039 -7.92599
LeftToes  1.06248e-005 4.65856e-005 -8.185e-006
88
root  -16.0991 39.4664 -2.30732 -179.689 -73.7016 -171.014
RightUpLeg  30.5241 -9.40885 -19.8887
RightLeg  16.2771 -0.835813 -0.555375
RightFoot  20.0771 -1.6611 6.38587
RightToes  0.00048216 0.542163 -0.142577
Spine  -7.23013 15.1987 13.3453
Spine1  6.30349 18.1567 -17.4366
HEad  6.59896 -6.35632 0.779538
LeftShoulder1  -0.656602 8.99532 -4.08914
LeftArm  1.1345 32.2224 10.6615
LeftForeArm  20.5875 -19.0277 -3.7047
LeftHand  -0.25398 0.0180481 5.50724
RightShoulder  2.8067 7.11804 20.0195
RightArm  16.7902 -23.3748 15.7897
RightForeArm  157.181 46.6194 168.4
RightHand  -1.00507 0.406746 -20.0772
LeftUpLeg  -53.194 19.2513 -6.55594
LeftLeg  18.3852 3.34249 1.41556
LeftFoot  -15.7936 -0.246896 -8.93817
LeftToes  1.06248e-005 4.65856e-005 -8.185e-006
89
root  -19.7256 38.3886 -2.21146 175.986 -72.6377 -168.138
RightUpLeg  29.7254 -6.84207 -19.1642
RightLeg  23.3726 -0.766622 -0.549851
RightFoot  17.0286 -1.20897 5.26323
RightToes  0.00048216 0.542163 -0.142577
Spine  -8.71904 15.7089 14.2433
Spine1  7.54783 18.6705 -17.4097
HEad  9.93809 -5.33162 1.4845
LeftShoulder1  -0.911965 11.9705 -2.55335
LeftArm  -1.21743 35.277 6.70588
LeftForeArm  22.1654 -21.2126 -3.61207
LeftHand  -0.25398 0.0180481 5.50724
RightShoulder  2.57869 6.64037 18.9499
RightArm  22.1075 -32.0595 16.1
RightForeArm  158.038 48.5238 167.72
RightHand  -0.795924 -0.470691 -18.6121
LeftUpLeg  -48.0221 21.0311 -5.63539
LeftLeg  16.9639 4.69636 1.40733
LeftFoot  -13.7955 -0.10934 -8.7422
LeftToes  1.06248e-005 4.65856e-005 -8.185e-006
90
root  -23.0228 37.1195 -2.1451 175.196 -73.6018 -169.286
RightUpLeg  27.9846 -6.1165 -19.1367
RightLeg  32.6549 -1.06277 -1.0182
RightFoot  10.6238 -1.04347 5.78088
RightToes  0.00048216 0.542163 -0.142577
Spine  -7.42929 14.2247 12.3214
Spine1  6.74198 17.2902 -16.4996
HEad  11.3644 -3.92179 1.97412
LeftShoulder1  -1.1936 13.0067 -4.54192
LeftArm  -6.61145 39.6148 2.12766
LeftForeArm  23.8074 -24.6628 -4.00103
LeftHand  -0.25398 0.0180481 5.50724
RightShoulder  2.63528 6.38791 20.2708
RightArm  23.688 -39.4093 16.2298
RightForeArm  158.309 52.8656 165.895
RightHand  -0.513871 -1.90369 -16.8648
LeftUpLeg  -46.1968 22.1334 -7.64235
LeftLeg  21.3562 4.72033 2.42998
LeftFoot  -6.06868 0.141787 -3.71217
LeftToes  1.06248e-005 4.65856e-005 -8.185e-006
91
root  -25.816 35.8634 -2.11305 -177.797 -77.6188 -179.516
RightUpLeg  24.5117 -6.94068 -19.9861
RightLeg  46.4267 -3.31128 -4.18939
RightFoot  4.53973 -0.853196 6.31912
RightToes  0.00048216 0.542163 -0.142577
Spine  -2.2265 10.2085 7.77101
Spine1  5.07106 13.8069 -16.0058
HEad  9.47531 -2.30591 2.141
LeftShoulder1  -1.36602 10.2545 -14.0215
LeftArm  -15.3669 41.6485 -1.63053
LeftForeArm  23.1991 -26.1019 -4.38428
LeftHand  -0.25398 0.0180481 5.50724
RightShoulder  3.12155 6.25969 25.8746
RightArm  18.4816 -42.4569 18.1102
RightForeArm  156.465 60.721 161.125
RightHand  -0.473457 -2.2502 -17.0896
LeftUpLeg  -46.1006 18.8666 -10.1901
LeftLeg  31.8551 5.1508 3.78647
LeftFoot  1.57268 -0.579875 5.32666
LeftToes  1.06248e-005 4.65856e-005 -8.185e-006
92
root  -27.9357 34.8057 -2.06566 -160.186 -80.9243 158.892
RightUpLeg  16.2954 -6.66918 -20.3013
RightLeg  64.7009 -4.01087 -9.86276
RightFoot  -0.379085 -0.489924 4.97712
RightToes  0.00048216 0.542163 -0.142577
Spine  5.45106 6.06965 3.01283
Spine1  5.34934 10.1366 -15.928
HEad  5.38631 -0.493668 1.64589
LeftShoulder1  -0.0175756 3.69515 -27.5741
LeftArm  -24.4864 37.9209 -6.82578
LeftForeArm  19.5152 -22.8654 -3.6632
LeftHand  -0.25398 0.0180481 5.50724
RightShoulder  3.91317 6.59583 32.7711
RightArm  7.34941 -38.6426 24.7415
RightForeArm  136.154 73.4 139.991
RightHand  -0.827571 -0.798727 -20.4786
LeftUpLeg  -45.4503 15.0689 -13.2955
LeftLeg  43.3679 5.0196 5.4852
LeftFoot  1.44842 -1.32993 11.9609
LeftToes  1.06248e-005 4.65856e-005 -8.185e-006
93
root  -29.2907 34.2063 -1.97162 -146.139 -80.6227 141.709
RightUpLeg  1.6094 -3.07939 -17.9588
RightLeg  81.6581 -1.45329 -14.6784
RightFoot  -5.14533 -0.118052 1.4306
RightToes  0.00048216 0.542163 -0.142577
Spine  13.2417 3.81554 -0.823822
Spine1  6.63606 7.78064 -15.2097
HEad  2.57131 1.27493 0.505564
LeftShoulder1  3.19752 -3.71226 -38.3548
LeftArm  -24.0879 28.461 -12.7151
LeftForeArm  14.8548 -17.8011 -2.27925
LeftHand  -0.25398 0.0180481 5.50724
RightShoulder  4.75145 7.60799 36.7749
RightArm  -1.34141 -29.4608 31.6537
RightForeArm  47.4552 76.8674 55.2611
RightHand  -1.58603 1.96632 -24.931
LeftUpLeg  -43.6326 13.7354 -15.2848
LeftLeg  50.876 5.63621 7.82608
LeftFoot  -4.29591 -0.810123 13.1979
LeftToes  1.06248e-005 4.65856e-005 -8.185e-006
